<svg xmlns="http://www.w3.org/2000/svg" version="1.1" xmlns:xlink="http://www.w3.org/1999/xlink" xmlns:svgjs="http://svgjs.dev/svgjs" viewBox="0 0 640 800"><defs><filter id="uuunion-blur" x="-100%" y="-100%" width="400%" height="400%" color-interpolation-filters="sRGB">
        <feGaussianBlur in="SourceGraphic" stdDeviation="0 0" result="blur"></feGaussianBlur>
        <feDropShadow stdDeviation="12.307692307692308" in="blur" dx="10" dy="10" flood-color="hsl(30, 100%, 40%)" flood-opacity="0.25" x="0%" y="0%" width="100%" height="100%"></feDropShadow>
      </filter><filter id="uuunion-blur2" x="-100%" y="-100%" width="400%" height="400%" color-interpolation-filters="sRGB">
        <feGaussianBlur in="SourceGraphic" stdDeviation="0 0" result="blur"></feGaussianBlur>
        <feDropShadow stdDeviation="12.307692307692308" in="blur" dx="-10" dy="-10" flood-color="hsl(30, 100%, 40%)" flood-opacity="0.25" x="0%" y="0%" width="100%" height="100%"></feDropShadow>
      </filter><linearGradient gradientTransform="rotate(158, 0.5, 0.5)" x1="50%" y1="0%" x2="50%" y2="100%" id="uuunion-grad"><stop stop-color="hsl(30, 100%, 70%)" offset="10%"></stop><stop stop-color="hsl(30, 100%, 40%)" offset="90%"></stop></linearGradient><linearGradient gradientTransform="rotate(135, 0.5, 0.5)" x1="50%" y1="0%" x2="50%" y2="100%" id="uuunion-grad2"><stop stop-color="hsl(30, 100%, 70%)" offset="25%"></stop><stop stop-color="hsl(30, 100%, 40%)" offset="100%"></stop></linearGradient><linearGradient gradientTransform="rotate(333, 0.5, 0.5)" x1="50%" y1="0%" x2="50%" y2="100%" id="uuunion-grad3"><stop stop-color="hsl(30, 100%, 70%)" offset="0%"></stop><stop stop-color="hsl(30, 100%, 40%)" offset="75%"></stop></linearGradient></defs><path d="M-64.75 -77.06Q-52.92 -75.24 -41.09 -73.67 -29.25 -72.44 -17.42 -71.61 -5.59 -71.22 6.23 -71.3 18.07 -71.84 29.9 -72.81 41.73 -74.16 53.56 -75.82 65.4 -77.71 77.23 -79.71 89.06 -81.73 100.89 -83.66 112.73 -85.39 124.56 -86.84 136.39 -87.92 148.22 -88.59 160.06 -88.79 171.89 -88.54 183.72 -87.83 195.55 -86.7 207.39 -85.22 219.22 -83.46 231.05 -81.52 242.88 -79.5 254.72 -77.5 266.55 -75.63 278.38 -74 290.21 -72.69 302.04 -71.76 313.88 -71.27 325.71 -71.24 337.54 -71.68 349.37 -72.55 361.21 -73.82 373.04 -75.42 384.87 -77.26 396.7 -79.25 408.54 -81.28 420.37 -83.23 432.2 -85.02 444.03 -86.54 455.87 -87.71 467.7 -88.47 479.53 -88.79 491.36 -88.64 503.2 -88.03 515.03 -86.99 526.86 -85.58 538.69 -83.88 550.53 -81.97 562.36 -79.96 574.19 -77.94 586.02 -76.04 597.86 -74.35 609.69 -72.95 621.52 -71.93 633.35 -71.34 645.18 -71.21 657.02 -71.54 668.85 -72.32 683.01 -66.71 682.43 -44.78 684.49 -29.66 691.02 -14.53 700.53 0.59 710.84 15.72 719.57 30.84 724.73 45.97 725.13 61.1 720.68 76.22 712.39 91.35 702.18 106.48 692.38 121.6 685.26 136.73 682.43 151.86 684.55 166.98 691.14 182.11 700.68 197.24 710.98 212.36 719.68 227.49 724.77 242.62 725.1 257.74 720.58 272.87 712.25 288 702.03 303.12 692.26 318.25 685.18 333.38 682.42 348.5 684.62 363.63 691.27 378.76 700.83 393.89 711.13 409.01 719.78 424.14 724.81 439.27 725.07 454.39 720.48 469.52 712.11 484.65 701.87 499.77 692.13 514.9 685.1 530.03 682.42 545.15 684.69 560.28 691.39 575.41 700.99 590.53 711.27 605.66 719.89 620.79 724.85 635.91 725.03 651.04 720.38 666.17 711.96 681.29 701.72 696.42 692 711.55 685.03 726.68 682.42 741.8 684.76 756.93 691.52 772.06 701.14 787.18 711.42 802.31 719.99 817.44 724.89 832.56 725 847.69 720.28 862.82 711.82 877.94 701.57 893.07 689.6 897.11 677.64 900.24 665.67 902.29 653.71 903.17 641.74 902.81 629.78 901.25 617.81 898.56 605.85 894.88 593.89 890.42 581.92 885.4 569.96 880.1 557.99 874.79 546.03 869.76 534.06 865.27 522.1 861.56 510.13 858.82 498.17 857.22 486.2 856.81 474.24 857.64 462.28 859.65 450.31 862.75 438.35 866.75 426.38 871.46 414.42 876.62 402.45 881.96 390.49 887.19 378.52 892.05 366.56 896.26 354.59 899.61 342.63 901.93 330.67 903.08 318.7 903 306.74 901.71 294.77 899.26 282.81 895.79 270.84 891.49 258.88 886.58 246.91 881.31 234.95 875.98 222.98 870.86 211.02 866.22 199.06 862.32 187.09 859.35 175.13 857.48 163.16 856.8 151.2 857.35 139.23 859.1 127.27 861.96 115.3 865.77 103.34 870.34 91.37 875.42 79.41 880.75 67.45 886.03 55.48 890.99 43.52 895.37 31.55 898.94 19.59 901.5 7.62 902.92 -4.33 903.13 -16.3 902.11 -28.26 899.91 -40.23 896.66 -52.19 892.53 -64.15 887.73 -63.48 872.66 -62.92 857.58 -62.61 842.51 -62.62 827.43 -62.94 812.36 -63.51 797.28 -64.18 782.21 -64.82 767.13 -65.26 752.06 -65.41 736.98 -65.24 721.91 -64.78 706.83 -64.14 691.76 -63.47 676.68 -62.92 661.61 -62.61 646.53 -62.62 631.46 -62.95 616.38 -63.52 601.31 -64.19 586.23 -64.82 571.16 -65.27 556.08 -65.41 541.01 -65.24 525.93 -64.78 510.86 -64.13 495.78 -63.46 480.71 -62.91 465.63 -62.61 450.56 -62.63 435.48 -62.96 420.41 -63.53 405.33 -64.2 390.26 -64.83 375.18 -65.27 360.11 -65.41 345.03 -65.23 329.96 -64.77 314.88 -64.12 299.81 -63.45 284.73 -62.9 269.66 -62.61 254.58 -62.63 239.51 -62.96 224.43 -63.54 209.36 -64.21 194.28 -64.84 179.21 -65.27 164.13 -65.41 149.06 -65.23 133.98 -64.76 118.91 -64.11 103.83 -63.44 88.76 -62.9 73.68 -62.6 58.61 -62.63 43.53 -62.97 28.46 -63.54 13.38 -64.22 -1.68 -64.85 -16.76 -65.28 -31.83 -65.41 -46.91 -65.22 -61.99 -64.75 -77.06" fill="url(#uuunion-grad)"></path><path d="M-64.75 -77.06Q-65.22 -61.99 -65.41 -46.91 -65.28 -31.83 -64.85 -16.76 -64.22 -1.68 -63.54 13.38 -62.97 28.46 -62.63 43.53 -62.6 58.61 -62.9 73.68 -63.44 88.76 -64.11 103.83 -64.76 118.91 -65.23 133.98 -65.41 149.06 -65.27 164.13 -64.84 179.21 -64.21 194.28 -63.54 209.36 -62.96 224.43 -62.63 239.51 -62.61 254.58 -62.9 269.66 -63.45 284.73 -64.12 299.81 -64.77 314.88 -65.23 329.96 -65.41 345.03 -65.27 360.11 -64.83 375.18 -64.2 390.26 -63.53 405.33 -47.39 409.65 -31.25 413.06 -1.75 415.8 3.03 415.98 12.41 409.23 21.68 401.92 30.85 394.1 39.96 385.82 49.05 377.18 58.18 368.25 67.38 359.15 76.72 349.98 86.22 340.84 95.94 331.84 105.9 323.09 116.12 314.66 126.62 306.64 137.39 299.08 148.41 292.03 159.65 285.5 171.07 279.51 182.6 274.04 194.19 269.04 205.77 264.48 217.26 260.27 228.58 256.35 239.67 252.62 250.46 248.99 260.9 245.36 270.95 241.64 280.58 237.73 289.78 233.55 298.58 229.03 307 224.11 315.09 218.75 322.92 212.92 330.57 206.61 338.12 199.83 345.69 192.61 353.37 185 361.28 177.03 369.5 168.79 378.12 160.35 387.23 151.79 396.87 143.21 407.07 134.67 417.86 126.28 429.21 118.1 441.09 110.2 453.44 102.64 466.17 95.46 479.17 88.69 492.33 82.34 505.52 76.41 518.6 70.87 531.45 65.7 543.92 60.86 555.9 56.27 567.3 51.89 578.03 47.63 588.05 43.43 597.33 39.2 605.87 34.87 613.73 30.38 627.46 20.49 640 9.66 629.35 -8.08 622.01 -25.84 620.24 -43.59 624.61 -61.34 633.75 -79.1 644.83 -96.85 654.41 -114.6 659.51 -132.36 646.79 -133.05 634.06 -134.14 621.34 -135.56 608.61 -137.23 595.88 -139.06 583.16 -140.94 570.43 -142.76 557.71 -144.43 544.98 -145.85 532.26 -146.94 519.53 -147.63 506.81 -147.89 494.08 -147.71 481.35 -147.08 468.63 -146.06 455.9 -144.69 443.18 -143.06 430.45 -141.25 417.73 -139.37 405 -137.53 392.27 -135.82 379.55 -134.35 366.82 -133.21 354.1 -132.44 341.37 -132.11 328.65 -132.22 315.92 -132.77 303.19 -133.73 290.47 -135.05 277.74 -136.65 265.02 -138.43 252.29 -140.31 239.57 -142.16 226.84 -143.9 214.11 -145.41 201.39 -146.62 188.66 -147.45 175.94 -147.86 163.21 -147.82 150.49 -147.34 137.76 -146.44 125.04 -145.18 112.31 -143.63 99.58 -141.87 86.86 -140 74.13 -138.13 61.41 -136.37 48.68 -134.82 35.96 -133.55 23.23 -132.65 10.5 -132.17 -2.21 -132.13 -14.94 -132.54 -27.66 -133.37 -40.39 -134.57 -53.11 -136.08 -65.84 -137.82 -78.57 -139.67 -91.29 -141.55 -104.02 -143.33 -116.74 -144.93 -129.47 -146.25 -142.76 -143.55 -131.77 -131.64 -120.28 -123.06 -108.9 -114.18 -97.66 -105.07 -86.56 -95.79 -75.6 -86.42 -64.75 -77.06" fill="url(#uuunion-grad2)" filter="url(#uuunion-blur)"></path><path d="M646.57 415.46Q662.71 415.98 678.85 414.99 694.99 412.59 711.13 409.01 719.78 424.14 724.81 439.27 725.07 454.39 720.48 469.52 712.11 484.65 701.87 499.77 692.13 514.9 685.1 530.03 682.42 545.15 684.69 560.28 691.39 575.41 700.99 590.53 711.27 605.66 719.89 620.79 724.85 635.91 725.03 651.04 720.38 666.17 711.96 681.29 701.72 696.42 692 711.55 685.03 726.68 682.42 741.8 684.76 756.93 691.52 772.06 701.14 787.18 711.42 802.31 719.99 817.44 724.89 832.56 725 847.69 720.28 862.82 711.82 877.94 701.57 893.07 690.58 896.81 679.6 899.79 668.62 901.89 657.63 903.01 646.65 903.11 635.67 902.17 624.69 900.23 613.7 897.4 602.72 893.78 591.74 889.55 580.75 884.89 569.77 880.01 558.79 875.14 547.8 870.47 536.82 866.24 525.84 862.62 514.85 859.77 503.87 857.84 492.89 856.89 481.9 856.97 470.92 858.08 459.94 860.18 448.96 863.16 437.97 866.89 426.99 871.21 416.01 875.92 405.02 880.81 394.04 885.67 383.06 890.27 372.07 894.41 361.09 897.91 350.11 900.61 339.12 902.39 328.14 903.16 317.16 902.9 306.18 901.62 295.19 899.37 284.21 896.25 273.23 892.4 262.24 888.01 251.26 883.25 240.28 878.35 229.29 873.52 218.31 868.98 207.33 864.93 196.34 861.56 185.36 859.01 174.38 857.4 163.4 856.8 152.41 857.24 141.43 858.69 130.45 861.1 119.46 864.35 108.48 868.3 97.5 872.77 86.51 877.57 75.53 882.48 64.55 887.27 53.56 891.74 42.58 895.68 31.6 898.93 20.62 901.32 4.63 897.9 0.56 882.89 1.31 872.74 1.83 862.59 2.06 852.44 1.97 842.29 1.5 827.07 1.93 822 14.05 815.02 26 806.83 37.78 797.56 49.41 787.37 60.94 776.51 72.41 765.24 83.87 753.86 95.37 742.66 106.99 731.93 118.78 721.91 130.79 712.82 143.06 704.81 155.65 697.97 168.55 692.32 181.79 687.83 195.35 684.38 209.21 681.79 223.33 679.86 237.64 678.32 252.07 676.91 266.56 675.34 280.99 673.36 295.29 670.71 309.37 667.19 323.13 662.67 336.51 657.05 349.43 650.3 361.87 642.46 373.8 633.64 385.2 623.99 396.11 613.72 406.58 603.05 416.66 592.26 426.45 581.59 436.05 571.31 445.57 561.64 455.15 552.76 464.91 544.83 474.98 537.92 485.48 532.08 496.5 527.25 508.14 523.35 520.46 520.24 533.48 517.73 547.22 515.59 561.64 513.59 576.69 511.49 592.29 509.04 608.32 506.03 624.65 502.28 641.12 497.66 657.57 492.08 673.84 485.52 689.76 478 705.18 469.61 719.95 460.47 733.96 450.77 747.12 440.7 759.38 430.5 770.73 420.38 781.19 410.57 790.8 401.26 788.24 389.71 767.61 392.63 757.53 395.48 747.44 398.5 737.35 401.57 727.27 404.59 717.18 407.43 707.09 410 697.01 412.2 686.92 413.95 676.83 415.19 666.75 415.87 656.66 415.96 646.57 415.46" fill="url(#uuunion-grad3)" filter="url(#uuunion-blur2)"></path></svg>