<svg xmlns="http://www.w3.org/2000/svg" version="1.1" xmlns:xlink="http://www.w3.org/1999/xlink" xmlns:svgjs="http://svgjs.dev/svgjs" viewBox="0 0 640 800"><defs><filter id="uuunion-blur" x="-100%" y="-100%" width="400%" height="400%" color-interpolation-filters="sRGB">
        <feGaussianBlur in="SourceGraphic" stdDeviation="0 0" result="blur"></feGaussianBlur>
        <feDropShadow stdDeviation="12.307692307692308" in="blur" dx="10" dy="10" flood-color="hsl(331, 90%, 56%)" flood-opacity="0.25" x="0%" y="0%" width="100%" height="100%"></feDropShadow>
      </filter><filter id="uuunion-blur2" x="-100%" y="-100%" width="400%" height="400%" color-interpolation-filters="sRGB">
        <feGaussianBlur in="SourceGraphic" stdDeviation="0 0" result="blur"></feGaussianBlur>
        <feDropShadow stdDeviation="12.307692307692308" in="blur" dx="-10" dy="-10" flood-color="hsl(331, 90%, 56%)" flood-opacity="0.25" x="0%" y="0%" width="100%" height="100%"></feDropShadow>
      </filter><linearGradient gradientTransform="rotate(158, 0.5, 0.5)" x1="50%" y1="0%" x2="50%" y2="100%" id="uuunion-grad"><stop stop-color="hsl(206, 75%, 49%)" offset="10%"></stop><stop stop-color="hsl(331, 90%, 56%)" offset="90%"></stop></linearGradient><linearGradient gradientTransform="rotate(135, 0.5, 0.5)" x1="50%" y1="0%" x2="50%" y2="100%" id="uuunion-grad2"><stop stop-color="hsl(206, 75%, 49%)" offset="25%"></stop><stop stop-color="hsl(331, 90%, 56%)" offset="100%"></stop></linearGradient><linearGradient gradientTransform="rotate(333, 0.5, 0.5)" x1="50%" y1="0%" x2="50%" y2="100%" id="uuunion-grad3"><stop stop-color="hsl(206, 75%, 49%)" offset="0%"></stop><stop stop-color="hsl(331, 90%, 56%)" offset="75%"></stop></linearGradient></defs><path d="M-65.29 -84.17Q-53.57 -80.93 -41.86 -77.56 -30.15 -74.55 -18.43 -72.34 -6.72 -71.27 4.99 -71.49 16.7 -72.96 28.41 -75.48 40.13 -78.67 51.84 -82.05 63.55 -85.13 75.27 -87.45 86.98 -88.66 98.69 -88.6 110.41 -87.26 122.12 -84.84 133.83 -81.71 145.55 -78.33 157.26 -75.19 168.98 -72.76 180.69 -71.4 192.4 -71.32 204.12 -72.52 215.83 -74.82 227.54 -77.89 239.26 -81.28 250.97 -84.47 262.68 -87 274.4 -88.49 286.11 -88.73 297.82 -87.67 309.54 -85.48 321.25 -82.48 332.97 -79.11 344.68 -75.87 356.39 -73.24 368.11 -71.61 379.82 -71.22 391.53 -72.13 403.25 -74.21 414.96 -77.14 426.67 -80.49 438.39 -83.77 450.1 -86.49 461.81 -88.25 473.53 -88.79 485.24 -88.03 496.96 -86.07 508.67 -83.22 520.38 -79.89 532.1 -76.58 543.81 -73.77 555.52 -71.88 567.24 -71.2 578.95 -71.81 590.66 -73.64 602.38 -76.4 614.09 -79.7 625.8 -83.04 637.52 -85.93 649.23 -87.95 660.95 -88.78 672.66 -88.32 684.37 -86.62 682.45 -71.79 683.52 -56.96 687.43 -42.13 693.65 -27.3 701.3 -12.47 709.33 2.35 716.62 17.18 722.15 32.02 725.16 46.85 725.23 61.68 722.34 76.51 716.91 91.34 709.68 106.17 701.66 121 693.96 135.83 687.66 150.66 683.63 165.49 682.43 180.32 684.23 195.15 688.77 209.98 695.43 224.81 703.28 239.64 711.23 254.47 718.17 269.31 723.15 284.14 725.46 298.97 724.79 313.8 721.23 328.63 715.27 343.46 707.75 358.29 699.7 373.12 692.26 387.95 686.44 402.78 683.06 417.61 682.6 432.44 685.1 447.27 690.24 462.1 697.28 476.93 705.26 491.76 713.06 506.6 719.6 521.43 723.98 536.26 725.57 551.09 724.17 565.92 719.96 580.75 713.54 595.58 705.78 610.41 697.78 625.24 690.64 640.07 685.36 654.9 682.67 669.73 682.94 684.56 686.14 699.39 691.82 714.22 699.19 729.05 707.23 743.89 714.82 758.72 720.91 773.55 724.64 788.38 725.51 803.21 723.38 818.04 718.56 832.87 711.72 847.7 703.8 862.53 691.81 858.06 679.81 856.83 667.81 859.03 655.82 864.34 643.82 871.96 631.82 880.77 619.82 889.46 607.83 896.76 595.83 901.57 583.83 903.19 571.83 901.38 559.84 896.41 547.84 889 535.84 880.26 523.85 871.49 511.85 863.97 499.85 858.82 487.85 856.81 475.86 858.23 463.86 862.87 451.86 870.04 439.87 878.69 427.87 887.53 415.87 895.25 403.87 900.72 391.88 903.12 379.88 902.1 367.88 897.81 355.88 890.88 343.89 882.34 331.89 873.45 319.89 865.53 307.9 859.76 295.9 856.97 283.9 857.6 271.9 861.53 259.91 868.2 247.91 876.62 235.91 885.53 223.92 893.63 211.92 899.71 199.92 902.87 187.92 902.64 175.93 899.07 163.93 892.67 151.93 884.4 139.94 875.47 127.94 867.22 115.94 860.85 103.94 857.32 91.95 857.14 79.95 860.35 67.95 866.46 55.95 874.58 43.96 883.5 31.96 891.89 19.96 898.53 7.97 902.43 -4.02 903 -16.02 900.17 -28.02 894.36 -40.01 886.42 -52.01 877.53 -64.01 869 -63.49 854.11 -63.04 839.21 -62.72 824.32 -62.58 809.43 -62.64 794.53 -62.88 779.64 -63.28 764.75 -63.78 749.85 -64.31 734.96 -64.8 720.07 -65.17 705.17 -65.38 690.28 -65.4 675.39 -65.22 660.49 -64.87 645.6 -64.4 630.71 -63.88 615.81 -63.37 600.92 -62.94 586.03 -62.67 571.13 -62.58 556.24 -62.68 541.35 -62.97 526.45 -63.4 511.56 -63.91 496.67 -64.44 481.77 -64.9 466.88 -65.24 451.99 -65.4 437.09 -65.37 422.2 -65.15 407.31 -64.77 392.41 -64.28 377.52 -63.75 362.63 -63.25 347.73 -62.86 332.84 -62.63 317.95 -62.58 303.05 -62.73 288.16 -63.06 273.27 -63.52 258.37 -64.04 243.48 -64.56 228.59 -65 213.69 -65.3 198.8 -65.41 183.91 -65.33 169.01 -65.07 154.12 -64.66 139.23 -64.15 124.33 -63.62 109.44 -63.15 94.55 -62.79 79.65 -62.6 64.76 -62.6 49.86 -62.8 34.97 -63.16 20.08 -63.64 5.18 -64.17 -9.7 -64.68 -24.59 -65.08 -39.49 -65.34 -54.38 -65.41 -69.27 -65.29 -84.17" fill="url(#uuunion-grad)"></path><path d="M-65.29 -84.17Q-65.41 -69.27 -65.34 -54.38 -65.08 -39.49 -64.68 -24.59 -64.17 -9.7 -63.64 5.18 -63.16 20.08 -62.8 34.97 -62.6 49.86 -62.6 64.76 -62.79 79.65 -63.15 94.55 -63.62 109.44 -64.15 124.33 -64.66 139.23 -65.07 154.12 -65.33 169.01 -65.41 183.91 -65.3 198.8 -65 213.69 -64.56 228.59 -64.04 243.48 -63.52 258.37 -63.06 273.27 -62.73 288.16 -62.58 303.05 -62.63 317.95 -62.86 332.84 -63.25 347.73 -63.75 362.63 -64.28 377.52 -64.77 392.41 -49 400.35 -33.22 408.2 -4.4 415.46 0.27 415.96 10.56 408.48 20.97 399.51 31.47 389.35 42.07 378.41 52.74 367.17 63.47 356.16 74.24 345.85 85.01 336.65 95.77 328.84 106.49 322.58 117.13 317.83 127.67 314.44 138.09 312.08 148.36 310.36 158.46 308.79 168.37 306.91 178.09 304.26 187.6 300.5 196.92 295.38 206.04 288.8 214.98 280.82 223.75 271.63 232.39 261.55 240.92 250.98 249.38 240.37 257.8 230.16 266.23 220.76 274.7 212.46 283.27 205.47 291.97 199.85 300.85 195.5 309.93 192.22 319.27 189.69 328.88 187.52 338.78 185.29 349 182.59 359.53 179.06 370.37 174.44 381.52 168.58 392.95 161.46 404.64 153.18 416.55 143.97 428.64 134.15 440.86 124.09 453.15 114.18 465.46 104.79 477.73 96.24 489.89 88.74 501.9 82.41 513.67 77.24 525.18 73.09 536.36 69.73 547.17 66.87 557.59 64.14 567.58 61.18 577.14 57.66 586.26 53.31 594.96 47.96 603.24 41.53 611.15 34.05 618.72 25.68 626.01 16.63 633.08 7.22 640 -2.22 631.56 -19.67 624.72 -37.11 620.76 -54.55 620.41 -71.99 623.76 -89.43 630.17 -106.87 636.44 -131.47 621.93 -135.69 609.41 -133.45 596.89 -132.24 584.37 -132.26 571.85 -133.5 559.33 -135.77 546.81 -138.7 534.29 -141.84 521.77 -144.69 509.25 -146.79 496.73 -147.82 484.21 -147.62 471.69 -146.21 459.17 -143.82 446.65 -140.82 434.13 -137.69 421.61 -134.93 409.09 -132.97 396.57 -132.12 384.05 -132.51 371.52 -134.09 359 -136.59 346.48 -139.64 333.96 -142.74 321.44 -145.41 308.92 -147.22 296.4 -147.89 283.88 -147.32 271.36 -145.58 258.84 -142.96 246.32 -139.87 233.8 -136.81 221.28 -134.24 208.76 -132.59 196.24 -132.1 183.72 -132.87 171.2 -134.76 158.68 -137.47 146.16 -140.59 133.64 -143.61 121.12 -146.06 108.59 -147.55 96.07 -147.85 83.55 -146.91 71.03 -144.87 58.51 -142.06 45.99 -138.93 33.47 -135.96 20.95 -133.64 8.43 -132.31 -4.08 -132.2 -16.6 -133.32 -29.12 -135.5 -41.64 -138.39 -54.16 -141.53 -66.68 -144.43 -79.2 -146.62 -91.72 -147.77 -104.24 -147.7 -116.76 -146.4 -129.28 -144.09 -131.28 -130.42 -109.09 -117.77 -98.04 -110.96 -87.07 -103.05 -76.16 -94.06 -65.29 -84.17" fill="url(#uuunion-grad2)" filter="url(#uuunion-blur)"></path><path d="M629.17 396.43Q644.94 389.2 660.71 384.78 676.48 384.32 692.26 387.95 686.44 402.78 683.06 417.61 682.6 432.44 685.1 447.27 690.24 462.1 697.28 476.93 705.26 491.76 713.06 506.6 719.6 521.43 723.98 536.26 725.57 551.09 724.17 565.92 719.96 580.75 713.54 595.58 705.78 610.41 697.78 625.24 690.64 640.07 685.36 654.9 682.67 669.73 682.94 684.56 686.14 699.39 691.82 714.22 699.19 729.05 707.23 743.89 714.82 758.72 720.91 773.55 724.64 788.38 725.51 803.21 723.38 818.04 718.56 832.87 711.72 847.7 703.8 862.53 692.79 858.31 681.78 856.8 670.76 858.18 659.75 862.29 648.74 868.62 637.73 876.36 626.71 884.56 615.7 892.19 604.69 898.29 593.67 902.11 582.66 903.17 571.65 901.33 560.63 896.82 549.62 890.21 538.61 882.33 527.59 874.15 516.58 866.71 505.57 860.92 494.56 857.52 483.54 856.92 472.53 859.21 461.52 864.1 450.5 870.97 439.49 878.97 428.48 887.1 417.46 894.34 406.45 899.79 395.44 902.76 384.43 902.89 373.41 900.16 362.4 894.91 351.39 887.8 340.37 879.71 329.36 871.66 318.35 864.65 307.33 859.55 296.32 857.01 285.31 857.34 274.29 860.51 263.28 866.1 252.27 873.44 241.26 881.59 230.24 889.54 219.23 896.3 208.22 901.02 197.2 903.12 186.19 902.33 175.18 898.74 164.16 892.82 153.15 885.29 142.14 877.1 131.12 869.27 120.11 862.78 109.1 858.45 98.09 856.8 87.07 858.06 76.06 862.05 65.05 868.29 54.03 875.99 43.02 884.19 32.01 891.86 20.99 898.06 4.85 897.51 0.44 882.88 1.07 872.73 1.57 862.58 1.9 852.43 2.06 842.28 2.17 827.06 2.83 822 15.37 813.89 27.79 802.59 40.07 788.92 52.21 774.08 64.21 759.47 76.07 746.41 87.8 735.98 99.43 728.82 110.96 725.05 122.44 724.25 133.88 725.51 145.33 727.62 156.81 729.24 168.37 729.11 180.04 726.27 191.85 720.2 203.84 710.91 216.03 698.9 228.45 685.12 241.11 670.79 254.03 657.21 267.21 645.54 280.65 636.63 294.33 630.87 308.24 628.17 322.35 627.92 336.62 629.14 351.01 630.62 365.48 631.14 379.98 629.61 394.45 625.3 408.84 617.93 423.09 607.71 437.15 595.29 450.96 581.7 464.49 568.1 477.68 555.68 490.52 545.41 502.97 537.9 515.02 533.34 526.66 531.42 537.91 531.42 548.78 532.32 559.29 532.98 569.49 532.29 579.43 529.39 589.16 523.75 598.74 515.31 608.26 504.45 617.78 491.93 627.38 478.77 637.14 466.08 647.13 454.89 657.43 445.95 668.11 439.69 679.21 436.07 690.8 434.64 702.9 434.61 715.55 434.97 728.75 434.66 742.51 432.74 756.81 428.54 765.82 416.85 747.46 413.05 737.6 409.44 727.74 404.86 717.88 399.78 708.03 394.72 698.17 390.2 688.31 386.7 678.45 384.56 668.6 384.02 658.74 385.13 648.88 387.77 639.03 391.67 629.17 396.43" fill="url(#uuunion-grad3)" filter="url(#uuunion-blur2)"></path></svg>